<?xml version="1.0" encoding="utf-8"?>
<!-- Generator: Adobe Illustrator 24.0.3, SVG Export Plug-In . SVG Version: 6.00 Build 0)  -->
<svg version="1.1" id="Layer_1" xmlns="http://www.w3.org/2000/svg" xmlns:xlink="http://www.w3.org/1999/xlink" x="0px" y="0px"
	 viewBox="0 0 1172 432" style="enable-background:new 0 0 1172 432;" xml:space="preserve">
<path fill="000" d="M1169.54,13.03h-2.86v22.42h-100.19v-15.5H882.27V4.44H798.1v15.5h-81.32v15.5h-73.14V17.21h-40.57V2H481.54
	l0,0H180.63v19.23h-48.79v12.68h-10.94v15.5h-62.2v-15.5h-5.63v-0.27H17.1v1.02h0.89v19.32H2.46v33.86h113.11v31.01h16.26v31.01
	h16.26v15.5h16.26v15.5h16.26v15.5h16.26v15.5h32.53v15.5h32.53v77.98h16.26V430h24.44v-16.59h16.26v-31.01h16.26v-15.5h15.87V335.9
	h32.92v-15.5h15.4v-53.93h-15.4v-15.5h-18.59v-15.5h-14.34v-15.5h-32.13v-15.5h-65.05v-15.5h-14.89v-23.59h6.71v15.5h24.44v-15.5
	h16.26v-31.01h48.79v-15.5h16.26V95.93h-16.26v-15.5h-16.26V53.98h-16.26V41.33h22.63v31.01h17.98v10.94h40.7V72.34h32.53v-15.5
	h8.09v15.5h38.21V49.42h-30.03v-8.09h32.53v-15.5h16.26V5H600v14.57h2.94v15.87h-32.53v15.5h-16.26v31.01h-8.09v-15.5h-24.44v38.42
	h16.26v15.5h65.05v15.5h37.85v10.94h16.26v17.21h-18.73v-15.5h-48.79v-15.5h-62.59v10.94h-21.58v15.5h-16.26v53.93h16.26v15.5h65.05
	v77.52h16.26v31.01h16.26v15.5h40.7v-15.5h16.26v-46.51h13.41v26.45h13.8v-15.5h16.26v-29.3h-13.8v15.5h-18.73v-28.15h5.32v-15.5
	h16.26v-15.5h16.26v-22.92h-37.85v-10.94h-16.26v-17.21h18.73v15.5h46.33v-31.01h13.41v20.06h16.26v31.01h16.26v15.5h24.44V197.9
	h16.26v-20.06h13.41v15.5h16.26v32.71h-21.58v18.36h16.26v15.5h16.26v15.5h40.7v-15.5h8.09v23.59h-16.26v15.5h-16.26v38.42h16.26
	v15.5h40.7v-15.5h8.09v15.5h16.26v15.5h16.26v16.21h24.44v-16.21h40.61v16.21h40.71v-20.77h16.26v-13.8h-35.38v15.5h-45.93v-66.57
	h-16.26v-15.5h-32.53v-12.65h32.53v-21.03h-16.26v-12.83h-51.65v18.36h32.53V268h-51.25v-41.95h-30.07v15.5h-13.41v-17.21h10.94
	V182.4h37.85v-46.51h8.09v15.5h40.7v-20.06h10.94V86.52h-16.26V69.31h51.25v15.5h40.86V73.87h29.55v-15.5h31.3V38.3h69.25V13.03z
	 M478.69,22.97h-16.26v15.5H429.9v13.8h30.03v17.21h-32.5v-15.5h-13.8v15.5h-32.53v10.94h-34.99V69.48h-17.98V38.47h-28.35v18.36
	h16.26v26.45h16.26v15.5h16.26v17.21h-16.26v15.5h-48.79v31.01h-16.26V178h-18.73v-15.5h-12.43v29.3H251v15.5h65.05v15.5h32.13v15.5
	h14.34v15.5h18.59v15.5h15.4v48.21h-15.4v15.5h-32.92v31.01h-15.87v15.5h-16.26v31.01h-16.26v16.59h-18.73V302.5H264.8v-77.98
	h-32.53v-15.5h-32.53v-15.5h-16.26V178h-16.26v-15.5h-16.26V147h-16.26v-31.01h-16.26V84.98H5.32V56.83h15.53V36.77h34.99v15.5
	h67.91v-15.5h10.94V24.09h48.79V4.86h295.2V22.97z M676.17,290.92h16.26v-15.5h8.09v23.59h-16.26v15.5h-8.09V290.92z
	 M1028.64,368.44h21.58v-15.5h29.67v8.09h-16.26v20.77h-34.99V368.44z M920.12,252.5v-12.65h45.93v12.83h16.26V268h-29.67v-15.5
	H920.12z M898.54,270.86h51.25v15.5h32.53v15.5h16.26v63.72h-16.26v16.21h-18.73v-16.21h-16.26v-15.5h-16.26v-15.5h-13.8v15.5
	h-34.99v-15.5h-16.26v-32.71h16.26v-15.5h16.26V270.86z M949.79,133.03h-18.73v-17.21h18.73V133.03z M1097.43,55.51h-31.3v15.5
	h-29.55v10.94h-35.14v-15.5h-56.97v22.92h16.26v39.09h-8.09v-15.5h-24.44v22.92h21.58v12.65H914.8v-15.5H901v46.51h-37.85v41.95
	h-10.94v22.92h19.12v-15.5h24.35v28.15h-10.94v15.5h-34.99v-15.5h-16.26v-15.5h-16.26v-12.65h21.58v-38.42h-16.26v-15.5h-19.12
	v20.06h-16.26v31.01h-18.73v-15.5h-16.26v-31.01H735.9v-20.06h-19.12v31.01h-40.61v-15.5h-24.44v22.92h16.26v10.94h37.85v17.21
	h-16.26v15.5h-16.26v15.5h-5.32v31.01h-10.94v46.51h-16.26v15.5h-34.99v-15.5h-16.26v-31.01h-16.26v-77.52h-65.05v-15.5h-16.26
	v-48.21h16.26v-15.5h21.58v-10.94h56.88v15.5h48.79v15.5h24.44v-22.92h-16.26v-10.94h-37.85v-15.5h-65.05v-15.5h-16.26V69.31h18.73
	v15.5H557V53.81h16.26V38.3h32.53V20.06h34.99V38.3h78.86V22.8h81.32V7.3h78.46v15.5h184.22v15.5h33.8V55.51z"/>
</svg>
